<svg fill="none" viewBox="0 -2 24 30" xmlns="http://www.w3.org/2000/svg"><g clip-rule="evenodd" fill="#000" fill-rule="evenodd"><path d="m13.0387 2.13707c.3814.2233.5709.67042.4663 1.09976l-1.4319 5.8743h3.927c.4187 0 .7931.26088.9381.65371.145.39286.0299.83436-.2884 1.10646l-10.39998 8.8889c-.34555.2953-.84682.3205-1.22017.0611-.37335-.2593-.52484-.7377-.36874-1.1647l2.10882-5.7677h-3.76963c-.41084 0-.77987-.2513-.93043-.6335-.15056-.3823-.05201-.8177.24847-1.0979l9.53336-8.88888c.3232-.30136.8059-.35485 1.1872-.13155z"/><path d="m18.0001 13c.4 0 .7615.2384.9191.6061l3 7c.2176.5076-.0176 1.0955-.5252 1.313-.5076.2176-1.0955-.0176-1.3131-.5252l-.5974-1.3939h-2.9669l-.5974 1.3939c-.2175.5076-.8054.7428-1.313.5252-.5077-.2175-.7428-.8054-.5253-1.313l3-7c.1576-.3677.5191-.6061.9192-.6061zm-.6263 5h1.2526l-.6263-1.4614z"/></g></svg>