<svg clip-rule="evenodd" fill-rule="evenodd" stroke-linejoin="round" stroke-miterlimit="2" viewBox="0 -1 32 32" xmlns="http://www.w3.org/2000/svg"><path d="m7.378 13.612c-.834 2.375-1.378 4.889-1.378 7.388 0 5.519 4.481 10 10 10 2.563 0 4.902-.966 6.672-2.554.411-.368.445-1.001.077-1.412s-13.575-13.851-14.096-14.034-1.092.091-1.275.612zm2.374-5.274-6.853-6.854c-.391-.39-1.024-.39-1.415 0-.39.391-.39 1.024 0 1.415l27.809 27.808c.39.39 1.024.39 1.414 0s.39-1.024 0-1.414l-5.197-5.197c.318-.975.49-2.016.49-3.096 0-7.487-4.964-15.121-7.628-18.647-.002-.003-.005-.006-.007-.008-.561-.727-1.426-1.154-2.344-1.157-.919-.003-1.787.418-2.353 1.141-.001.002-.002.004-.004.006-1.088 1.411-2.554 3.51-3.912 6.003zm6.248 16.662c-2.208 0-4-1.792-4-4 0-.552-.448-1-1-1s-1 .448-1 1c0 3.311 2.689 6 6 6 .552 0 1-.448 1-1s-.448-1-1-1z"/></svg>