<svg enable-background="new 0 0 100 100" viewBox="0 0 100 100" xmlns="http://www.w3.org/2000/svg"><path d="m40.0826836 49.9962311c0 5.2640991 4.2819214 9.5470581 9.5450439 9.5470581s9.545105-4.282959 9.545105-9.5470581-4.2819824-9.5450439-9.545105-9.5450439-9.5450439 4.2809448-9.5450439 9.5450439z"/><path d="m16.1341991 35.3223419c5.0020142 4.0158081 13.1013184 7.4464111 20.6223125 9.5988159 1.9971924-5.1153564 6.9698486-8.7429199 12.7984619-8.7837524l-.2165527-1.3951416c-1.4664307-9.4483662.6641235-19.1031494 5.9707642-27.0569458.6443481-.9656372.036438-2.2716064-1.1166382-2.4060669-1.6469116-.1920166-3.3178101-.2821045-5.0247803-.2821045-8.5594482 0-16.5280151 2.4048462-23.3143902 6.5622559-4.9551392 3.050354-8.3998413 6.2702627-11.4214478 10.4854116-3.4306639 4.7855215-2.3175047 10.050355 1.7022706 13.2775278z"/><path d="m35.7682915 50.0702667-1.3950195.2164307c-9.4484234 1.4664917-19.1033306-.6640015-27.057127-5.9707642-.9656372-.6442261-2.2714233-.036377-2.4060669 1.1166382-.1920166 1.6468506-.2821045 3.3179321-.2821045 5.0249023 0 8.5593872 2.4048462 16.5279541 6.5622559 23.3143311 3.0504761 4.9551392 6.2703247 8.3998413 10.4854736 11.4215698 4.7855835 3.430481 10.050293 2.3174438 13.277586-1.7023315 4.015625-5.0020142 7.4463501-13.1014404 9.5986328-20.6223755-5.1152955-1.9971313-8.7428589-6.9698486-8.7836304-12.7984009z"/><path d="m83.1218109 64.6719513c-5.0020142-4.015625-13.1013184-7.4464111-20.6223793-9.5988159-1.9971313 5.1153564-6.9698486 8.7429199-12.7984009 8.7836914l.2165527 1.3951416c1.4664307 9.4484253-.6641235 19.1032715-5.9707642 27.0570068-.6443481.9656372-.036438 2.2716064 1.1166382 2.4060669 1.6468506.1920776 3.3178101.2821045 5.0247803.2821045 8.5593872 0 16.5279579-2.4047852 23.3143959-6.5621948 4.9551392-3.050415 8.3997803-6.2703857 11.4214478-10.4855347 3.430603-4.7854614 2.3174439-10.050354-1.7022705-13.2774658z"/><path d="m88.0657806 26.2225475c-3.0505371-4.9551392-6.2703247-8.3999634-10.4854736-11.4215689-4.7855835-3.430542-10.050354-2.3175049-13.2775879 1.7023306-4.0156288 5.0019531-7.4464149 13.1013794-9.5986977 20.6223774 5.1153564 1.9972534 8.7429199 6.9699097 8.7836914 12.7985229l1.3950233-.2165527c9.4484253-1.4665527 19.1033325.6641235 27.0571289 5.9707642.9655762.6442261 2.2715454.0363159 2.4060059-1.1166382.1920776-1.6469116.2821045-3.3179321.2821045-5.0247803.0000001-8.5594482-2.4047851-16.5280761-6.5621948-23.314455z"/></svg>