<svg viewBox="0 0 2000 2000" xmlns="http://www.w3.org/2000/svg"><path d="m950.71666 200c-91.00148 363.03773-261.02743 342.72685-486.7335 720.43221-192.78705 322.61679-60.73429 852.14088 469.6131 879.56779-200.25348-52.033-499.51844-415.61954-167.10811-785.17905-29.16515 140.5-17.309 259.33468 49.50739 263.2165 44.90771 2.609 60.90778-60.9351 37.2049-176.124-38.97443-161.46213 6.4123-284.07286 117.79733-422.8893-69.96034 446.82183 123.59831 454.90651 174.70341 763.864 35.72615-100.52208 57.30922-189.94942 13.38471-352.56533 56.38893 76.15317 82.92538 154.3618 90.43642 228.95208 2.43869-7.53589 19.48969-97.07564 133.00775-130.79954-106.93558 133.34181-20.92218 210.09087-102.96362 410.94328-40.62171 99.4493-117.45367 167.736-204.97225 194.61328 322.17148-47.61874 545.40581-329.42292 545.40581-669.95708 0-371.24307-325.1967-607.63269-669.28334-924.07484z"/></svg>