<svg viewBox="-5 -10 110 135" xmlns="http://www.w3.org/2000/svg"><path d="m92.996 48.941c-3.0273-2.7305-39.141-35.492-41.184-37.332-.85938-1.1172-2.6211-1.1484-3.5469-.09375-2.832 2.625-9.9414 9.0117-12.879 11.695v-6.2031-3.9609c0-.30859-.26172-.56641-.56641-.56641h-12.113c-.32422 0-.58203.26172-.58203.56641v22.18l-15.121 13.707c-2.1875 2.043.8125 5.4141 3.1016 3.4062 6.7891-6.1523 29.289-26.543 36.457-33.051l3.4375-3.1172 3.4375 3.1172 26.203 23.762 1.5352 1.3828 8.7188 7.9062c.44531.39844.99609.59766 1.5508.59766 1.9961.058594 3.1367-2.6797 1.5508-4.0078z"/><path d="m50 22.402-29.641 26.863-1.5352 1.3828v36.273c0 .41406.33594.76562.76562.76562h23.117c.42969 0 .76562-.35156.76562-.76562v-21.23h13.047v21.23c0 .41406.33594.76562.76562.76562h23.117c.42969 0 .76562-.35156.76562-.76562v-36.273l-1.5352-1.3828z"/></svg>